<svg width="750" height="750" viewBox="0 0 750 750" fill="none" xmlns="http://www.w3.org/2000/svg">
<g clip-path="url(#clip0_431_818)">
<rect width="750" height="750" rx="375" fill="#3CB0A0"/>
<path d="M250 275C250 241.848 263.17 210.054 286.612 186.612C310.054 163.17 341.848 150 375 150C408.152 150 439.946 163.17 463.388 186.612C486.83 210.054 500 241.848 500 275C500 308.152 486.83 339.946 463.388 363.388C439.946 386.83 408.152 400 375 400C341.848 400 310.054 386.83 286.612 363.388C263.17 339.946 250 308.152 250 275Z" fill="#484A4A"/>
<path fill-rule="evenodd" clip-rule="evenodd" d="M375 0C275.544 0 180.161 39.5088 109.835 109.835C39.5088 180.161 0 275.544 0 375C0 474.456 39.5088 569.839 109.835 640.165C180.161 710.491 275.544 750 375 750C474.456 750 569.839 710.491 640.165 640.165C710.491 569.839 750 474.456 750 375C750 275.544 710.491 180.161 640.165 109.835C569.839 39.5088 474.456 0 375 0ZM50 375C50.0008 321.234 63.3408 268.307 88.8245 220.964C114.308 173.621 151.14 133.339 196.018 103.729C240.896 74.1196 292.42 56.1064 345.971 51.304C399.523 46.5017 453.429 55.0602 502.86 76.2126C552.29 97.3651 595.701 130.451 629.202 172.504C662.702 214.558 685.246 264.266 694.813 317.175C704.381 370.083 700.672 424.538 684.02 475.661C667.368 526.784 638.293 572.976 599.4 610.1C595.667 566.42 575.676 525.731 543.381 496.084C511.086 466.437 468.84 449.991 425 450H325C281.16 449.991 238.914 466.437 206.619 496.084C174.324 525.731 154.333 566.42 150.6 610.1C118.763 579.784 93.4273 543.308 76.1328 502.891C58.8383 462.474 49.9471 418.962 50 375Z" fill="#484A4A"/>
</g>
<defs>
<clipPath id="clip0_431_818">
<rect width="750" height="750" rx="375" fill="#3CB0A0"/>
</clipPath>
</defs>
</svg>