<svg width="916" height="191" viewBox="0 0 916 191" fill="none" xmlns="http://www.w3.org/2000/svg">
<path d="M60.205 153.006C52.6747 153.006 45.6464 151.6 39.1201 148.789C32.5938 145.978 26.8708 142.112 21.951 137.192C17.0312 132.172 13.1656 126.399 10.3543 119.873C7.64338 113.246 6.28793 106.167 6.28793 98.6372C6.28793 91.1069 7.64338 84.0786 10.3543 77.5523C13.1656 71.026 16.981 65.303 21.8004 60.3832C26.7202 55.3629 32.393 51.4974 38.8189 48.7865C45.3452 45.9752 52.3735 44.5695 59.9038 44.5695C67.4341 44.5695 74.4122 45.9752 80.8381 48.7865C87.3643 51.4974 93.0874 55.3629 98.0072 60.3832C102.927 65.303 106.742 71.0762 109.453 77.7029C112.265 84.2292 113.67 91.2575 113.67 98.7878C113.67 106.318 112.265 113.397 109.453 120.023C106.742 126.55 102.927 132.273 98.0072 137.192C93.1878 142.112 87.5149 145.978 80.9887 148.789C74.5628 151.6 67.6349 153.006 60.205 153.006ZM59.9038 136.439C67.0325 136.439 73.2575 134.833 78.579 131.62C84.0008 128.407 88.2178 123.989 91.2299 118.367C94.3424 112.644 95.8987 106.067 95.8987 98.6372C95.8987 93.1149 94.9951 88.0947 93.1878 83.5765C91.4809 78.9579 89.021 74.992 85.8081 71.6786C82.5951 68.2649 78.7798 65.6544 74.362 63.8471C70.0446 62.0398 65.2252 61.1362 59.9038 61.1362C52.8755 61.1362 46.6504 62.7427 41.2286 65.9556C35.9072 69.0681 31.6902 73.4357 28.5777 79.0583C25.5655 84.681 24.0595 91.2073 24.0595 98.6372C24.0595 104.159 24.9129 109.28 26.6198 113.999C28.4271 118.618 30.887 122.584 33.9995 125.897C37.2124 129.21 41.0278 131.821 45.4456 133.728C49.8634 135.536 54.6828 136.439 59.9038 136.439ZM143.181 151.5V136.439H173.453C178.774 136.439 182.891 134.783 185.802 131.469C188.714 128.156 190.17 124.341 190.17 120.023C190.17 117.112 189.517 114.401 188.212 111.891C186.907 109.38 184.999 107.372 182.489 105.866C179.979 104.36 176.967 103.607 173.453 103.607H143.181V88.5465H170.892C175.411 88.5465 179.025 87.3919 181.736 85.0826C184.447 82.7733 185.802 79.3596 185.802 74.8414C185.802 70.3232 184.447 66.9094 181.736 64.6001C179.025 62.2908 175.411 61.1362 170.892 61.1362H143.181V46.0756H171.344C178.473 46.0756 184.397 47.3808 189.116 49.9913C193.835 52.6018 197.349 55.9654 199.658 60.0819C201.968 64.1985 203.122 68.6163 203.122 73.3353C203.122 78.8575 201.566 83.7271 198.453 87.9441C195.441 92.1611 190.973 95.5748 185.049 98.1854L186.405 92.7635C193.032 95.4744 198.202 99.2898 201.917 104.21C205.632 109.129 207.49 114.903 207.49 121.529C207.49 126.951 206.134 131.921 203.423 136.439C200.813 140.958 196.897 144.622 191.676 147.434C186.555 150.145 180.23 151.5 172.7 151.5H143.181ZM131.283 151.5V46.0756H148.603V151.5H131.283ZM236.869 106.77V92.4623H263.526C268.847 92.4623 272.964 91.1069 275.876 88.3959C278.888 85.5846 280.394 81.7191 280.394 76.7993C280.394 72.3815 278.938 68.6665 276.026 65.6544C273.115 62.6423 268.998 61.1362 263.677 61.1362H236.869V46.0756H264.43C271.056 46.0756 276.88 47.431 281.9 50.1419C286.92 52.7524 290.786 56.367 293.497 60.9856C296.308 65.5038 297.714 70.6746 297.714 76.498C297.714 82.6227 296.308 87.9441 293.497 92.4623C290.786 96.9805 286.92 100.495 281.9 103.005C276.88 105.515 271.056 106.77 264.43 106.77H236.869ZM224.971 151.5V46.0756H242.29V151.5H224.971ZM282.804 151.5L245.905 105.716L262.02 99.842L304.641 151.5H282.804Z" fill="#3CB0A0"/>
<path d="M416.023 153.273V98.3529H427.888C430.752 98.3529 432.134 94.8453 430.04 92.8922L371.808 38.575C370.596 37.4447 368.716 37.4447 367.505 38.5749L309.273 92.8922C307.179 94.8452 308.561 98.3529 311.424 98.3529H323.29V153.273H416.023Z" fill="#3CB0A0"/>
<path d="M369.625 143.223L365.814 139.753C352.277 127.478 343.34 119.356 343.34 109.447C343.34 101.325 349.701 94.9902 357.797 94.9902C362.37 94.9902 366.76 97.1193 369.625 100.457C372.49 97.1193 376.88 94.9902 381.453 94.9902C389.549 94.9902 395.91 101.325 395.91 109.447C395.91 119.356 386.973 127.478 373.436 139.753L369.625 143.223Z" fill="#2C2E2E"/>
<path d="M492.814 151.306H488.853L461.125 83.9656C459.951 81.3248 458.777 78.2439 457.604 74.7228C457.604 74.8206 457.506 75.3586 457.31 76.3366C457.212 77.3147 457.066 78.6351 456.87 80.2979C456.674 81.8628 456.479 83.1832 456.283 84.2591L445.28 156.294H438.678L454.229 60.4918H458.19L487.826 130.767C490.174 136.635 491.347 139.716 491.347 140.009C492.032 137.955 493.352 134.923 495.308 130.913L528.319 60.4918H532.28L546.804 156.294H539.762L529.346 83.9656C528.661 79.1731 528.319 75.9943 528.319 74.4294L524.064 84.1124L492.814 151.306ZM572.012 156.294V61.0786H578.761V156.294H572.012ZM613.991 156.294V60.4918H617.219L679.718 132.38C681.968 134.923 684.022 137.466 685.88 140.009C687.836 142.455 688.863 143.726 688.961 143.824C688.765 141.477 688.667 136.88 688.667 130.033V61.0786H695.416V156.881H692.188L628.516 83.8189L620.447 73.9893C620.642 75.9454 620.74 80.5424 620.74 87.7801V156.294H613.991ZM803.531 156.294V108.173H737.364V156.294H730.615V61.0786H737.364V102.158H803.531V61.0786H810.28V156.294H803.531ZM850.215 123.284L836.571 156.294H829.676L869.581 60.4918H873.542L913.741 156.294H906.259L892.468 123.284H850.215ZM871.195 71.3484C869.728 75.7498 868.407 79.4176 867.234 82.3518L852.563 117.563H890.121L875.596 82.4985C873.347 77.0213 871.88 73.3046 871.195 71.3484Z" fill="white"/>
</svg>
