<svg width="1881" height="391" viewBox="0 0 1881 391" fill="none" xmlns="http://www.w3.org/2000/svg">
<path d="M123.248 312.593C107.781 312.593 93.3444 309.706 79.9393 303.932C66.5342 298.157 54.779 290.217 44.6736 280.112C34.5683 269.8 26.6283 257.942 20.8538 244.537C15.2856 230.926 12.5014 216.386 12.5014 200.919C12.5014 185.451 15.2856 171.015 20.8538 157.61C26.6283 144.205 34.4652 132.45 44.3643 122.344C54.4697 112.033 66.1218 104.093 79.3206 98.5245C92.7257 92.75 107.162 89.8628 122.629 89.8628C138.097 89.8628 152.43 92.75 165.629 98.5245C179.034 104.093 190.789 112.033 200.894 122.344C211 132.45 218.837 144.308 224.405 157.919C230.179 171.324 233.067 185.761 233.067 201.228C233.067 216.696 230.179 231.235 224.405 244.846C218.837 258.251 211 270.007 200.894 280.112C190.995 290.217 179.343 298.157 165.938 303.932C152.739 309.706 138.509 312.593 123.248 312.593ZM122.629 278.565C137.272 278.565 150.058 275.265 160.989 268.666C172.125 262.067 180.787 252.992 186.974 241.443C193.367 229.688 196.564 216.18 196.564 200.919C196.564 189.576 194.708 179.264 190.995 169.984C187.489 160.497 182.437 152.351 175.837 145.545C169.238 138.534 161.401 133.172 152.327 129.459C143.459 125.747 133.56 123.891 122.629 123.891C108.193 123.891 95.4067 127.191 84.2702 133.79C73.3399 140.183 64.6782 149.155 58.285 160.704C52.098 172.253 49.0045 185.658 49.0045 200.919C49.0045 212.262 50.7575 222.779 54.2634 232.472C57.9756 241.959 63.0283 250.105 69.4215 256.911C76.0209 263.716 83.8577 269.079 92.932 272.997C102.006 276.709 111.905 278.565 122.629 278.565ZM293.682 309.5V278.565H355.861C366.791 278.565 375.247 275.162 381.228 268.357C387.208 261.551 390.199 253.714 390.199 244.846C390.199 238.865 388.858 233.297 386.177 228.141C383.496 222.986 379.578 218.861 374.422 215.768C369.266 212.674 363.079 211.127 355.861 211.127H293.682V180.192H350.602C359.883 180.192 367.307 177.821 372.875 173.077C378.443 168.334 381.228 161.322 381.228 152.042C381.228 142.761 378.443 135.749 372.875 131.006C367.307 126.263 359.883 123.891 350.602 123.891H293.682V92.9563H351.53C366.173 92.9563 378.34 95.6373 388.033 100.999C397.726 106.361 404.944 113.27 409.688 121.726C414.431 130.181 416.803 139.255 416.803 148.948C416.803 160.291 413.606 170.293 407.213 178.955C401.026 187.617 391.848 194.629 379.681 199.991L382.465 188.854C396.076 194.422 406.697 202.259 414.328 212.365C421.958 222.47 425.774 234.328 425.774 247.94C425.774 259.076 422.99 269.285 417.421 278.565C412.059 287.846 404.016 295.373 393.292 301.148C382.774 306.716 369.782 309.5 354.314 309.5H293.682ZM269.243 309.5V92.9563H304.819V309.5H269.243ZM486.118 217.624V188.236H540.873C551.803 188.236 560.259 185.451 566.239 179.883C572.426 174.109 575.52 166.169 575.52 156.063C575.52 146.989 572.53 139.358 566.549 133.172C560.568 126.985 552.113 123.891 541.182 123.891H486.118V92.9563H542.729C556.34 92.9563 568.302 95.7404 578.613 101.309C588.925 106.671 596.865 114.095 602.433 123.582C608.208 132.862 611.095 143.483 611.095 155.445C611.095 168.025 608.208 178.955 602.433 188.236C596.865 197.516 588.925 204.734 578.613 209.89C568.302 215.046 556.34 217.624 542.729 217.624H486.118ZM461.68 309.5V92.9563H497.255V309.5H461.68ZM580.47 309.5L504.679 215.458L537.779 203.394L625.325 309.5H580.47Z" fill="#3CB0A0"/>
<path d="M854.466 314.166V201.36H878.839C884.72 201.36 887.558 194.155 883.258 190.144L763.648 78.5748C761.159 76.2534 757.299 76.2534 754.81 78.5748L635.2 190.144C630.899 194.155 633.738 201.36 639.619 201.36H663.991V314.166H854.466Z" fill="#3CB0A0"/>
<path d="M759.165 293.524L751.336 286.397C723.532 261.184 705.175 244.501 705.175 224.147C705.175 207.464 718.241 194.453 734.87 194.453C744.264 194.453 753.28 198.826 759.165 205.683C765.05 198.826 774.066 194.453 783.46 194.453C800.089 194.453 813.154 207.464 813.154 224.147C813.154 244.501 794.798 261.184 766.993 286.397L759.165 293.524Z" fill="white"/>
<path d="M1012.2 305.754H1004.06L947.107 167.435C944.696 162.011 942.285 155.683 939.874 148.45C939.874 148.651 939.674 149.756 939.272 151.765C939.071 153.774 938.769 156.486 938.368 159.902C937.966 163.116 937.564 165.828 937.162 168.038L914.561 316H901L932.943 119.22H941.08L1001.95 263.565C1006.77 275.619 1009.18 281.948 1009.18 282.55C1010.59 278.331 1013.3 272.104 1017.32 263.867L1085.12 119.22H1093.26L1123.09 316H1108.63L1087.23 167.435C1085.83 157.591 1085.12 151.062 1085.12 147.848L1076.39 167.737L1012.2 305.754ZM1174.87 316V120.425H1188.73V316H1174.87ZM1261.1 316V119.22H1267.73L1396.1 266.88C1400.72 272.104 1404.94 277.327 1408.76 282.55C1412.78 287.573 1414.89 290.185 1415.09 290.385C1414.68 285.564 1414.48 276.122 1414.48 262.059V120.425H1428.35V317.205H1421.72L1290.93 167.134L1274.36 146.944C1274.76 150.962 1274.96 160.404 1274.96 175.27V316H1261.1ZM1650.42 316V217.158H1514.51V316H1500.65V120.425H1514.51V204.803H1650.42V120.425H1664.28V316H1650.42ZM1746.31 248.197L1718.28 316H1704.12L1786.08 119.22H1794.22L1876.79 316H1861.42L1833.09 248.197H1746.31ZM1789.4 141.519C1786.38 150.56 1783.67 158.094 1781.26 164.121L1751.13 236.444H1828.27L1798.44 164.422C1793.82 153.172 1790.8 145.537 1789.4 141.519Z" fill="#343636"/>
</svg>
