<svg width="1258" height="1258" viewBox="0 0 1258 1258" fill="none" xmlns="http://www.w3.org/2000/svg">
<rect width="1258" height="1258" fill="#DDDDDD"/>
<path d="M864.636 802.053V522.521H924.938C939.489 522.521 946.513 504.667 935.872 494.727L639.934 218.261C633.776 212.509 624.224 212.509 618.066 218.261L322.128 494.727C311.487 504.667 318.511 522.521 333.062 522.521H393.363V802.053H864.636Z" fill="black" fill-opacity="0.2"/>
<path d="M644.763 395.079C638.594 383.417 619.406 383.417 613.237 395.079L452.75 698.221C451.305 700.938 450.589 703.983 450.671 707.059C450.753 710.135 451.631 713.138 453.218 715.774C454.806 718.41 457.049 720.59 459.729 722.101C462.41 723.613 465.436 724.404 468.513 724.398H789.487C792.562 724.404 795.586 723.614 798.265 722.103C800.943 720.593 803.185 718.414 804.771 715.779C806.357 713.145 807.233 710.144 807.314 707.07C807.395 703.996 806.677 700.953 805.232 698.239L644.763 395.079ZM646.832 670.903H611.168V635.239H646.832V670.903ZM611.168 599.575V510.416H646.832L646.85 599.575H611.168Z" fill="#DDDDDD"/>
<path d="M213.459 1006.05V905.118H224.994L230.041 924.151V1006.05H213.459ZM283.392 1006.05L222.975 927.179L224.994 905.118L285.411 983.992L283.392 1006.05ZM283.392 1006.05L278.346 988.317V905.118H294.928V1006.05H283.392ZM363.246 1007.5C356.037 1007.5 349.308 1006.15 343.059 1003.46C336.811 1000.77 331.331 997.065 326.621 992.355C321.911 987.548 318.21 982.021 315.518 975.773C312.923 969.428 311.625 962.651 311.625 955.441C311.625 948.232 312.923 941.503 315.518 935.254C318.21 929.006 321.863 923.527 326.477 918.816C331.187 914.01 336.619 910.309 342.771 907.713C349.019 905.022 355.748 903.676 362.958 903.676C370.167 903.676 376.848 905.022 383.001 907.713C389.249 910.309 394.728 914.01 399.439 918.816C404.149 923.527 407.802 929.054 410.397 935.399C413.089 941.647 414.435 948.376 414.435 955.586C414.435 962.795 413.089 969.572 410.397 975.917C407.802 982.165 404.149 987.645 399.439 992.355C394.825 997.065 389.393 1000.77 383.145 1003.46C376.993 1006.15 370.36 1007.5 363.246 1007.5ZM362.958 991.634C369.783 991.634 375.743 990.096 380.838 987.02C386.029 983.944 390.066 979.714 392.95 974.331C395.93 968.851 397.42 962.555 397.42 955.441C397.42 950.154 396.555 945.348 394.825 941.022C393.19 936.6 390.835 932.803 387.759 929.631C384.683 926.362 381.03 923.863 376.8 922.133C372.667 920.402 368.053 919.537 362.958 919.537C356.229 919.537 350.269 921.075 345.078 924.151C339.983 927.131 335.946 931.313 332.966 936.696C330.082 942.079 328.64 948.328 328.64 955.441C328.64 960.728 329.457 965.631 331.091 970.149C332.821 974.571 335.177 978.368 338.157 981.54C341.233 984.713 344.886 987.212 349.115 989.038C353.345 990.769 357.959 991.634 362.958 991.634ZM449.917 1006.05V908.002H466.499V1006.05H449.917ZM417.04 920.258V905.118H499.375V920.258H417.04Z" fill="#B1B1B1"/>
<path d="M522.041 1009.55V909.121H573.311V915.021H528.784V951.963H569.518V957.722H528.784V1009.55H522.041ZM606.315 996.209C597.045 986.189 592.41 973.875 592.41 959.267C592.41 944.659 597.045 932.391 606.315 922.465C615.68 912.446 627.479 907.436 641.713 907.436C655.946 907.436 667.745 912.446 677.11 922.465C686.474 932.391 691.156 944.659 691.156 959.267C691.156 973.875 686.474 986.189 677.11 996.209C667.745 1006.23 655.946 1011.24 641.713 1011.24C627.479 1011.24 615.68 1006.23 606.315 996.209ZM611.372 926.82C603.6 935.529 599.714 946.344 599.714 959.267C599.714 972.19 603.6 983.052 611.372 991.855C619.238 1000.66 629.352 1005.06 641.713 1005.06C654.167 1005.06 664.28 1000.66 672.053 991.855C679.919 983.052 683.852 972.19 683.852 959.267C683.852 946.344 679.919 935.529 672.053 926.82C664.28 918.017 654.167 913.616 641.713 913.616C629.258 913.616 619.145 918.017 611.372 926.82ZM790.016 999.861C783.555 1007.45 773.723 1011.24 760.519 1011.24C747.315 1011.24 737.436 1007.4 730.881 999.721C724.42 992.042 721.189 981.554 721.189 968.257V909.121H727.931V968.257C727.931 992.978 738.747 1005.34 760.379 1005.34C782.104 1005.34 792.966 992.978 792.966 968.257V909.121H799.709V968.257C799.709 981.648 796.478 992.182 790.016 999.861ZM842.078 925.134L842.359 937.074V1009.55H835.617V908.278H838.707L904.866 984.551C909.361 989.888 912.825 994.149 915.26 997.333C914.886 992.838 914.698 987.688 914.698 981.882V909.121H921.441V1010.4H918.35L850.928 932.719C846.245 927.382 843.249 923.823 841.938 922.044L842.078 925.134ZM990.69 1004.64C1003.89 1004.64 1014.47 1001.08 1022.43 993.962C1030.49 986.751 1034.51 975.935 1034.51 961.514C1034.51 947.093 1029.97 935.622 1020.89 927.101C1011.9 918.579 1000.76 914.318 987.459 914.318C978.937 914.318 971.54 914.553 965.265 915.021V1003.51C971.352 1004.26 979.827 1004.64 990.69 1004.64ZM987.459 908.138C1002.91 908.138 1015.83 912.961 1026.23 922.606C1036.62 932.157 1041.82 945.174 1041.82 961.655C1041.82 969.989 1040.46 977.387 1037.75 983.848C1035.12 990.216 1031.47 995.32 1026.79 999.159C1017.14 1006.93 1005.11 1010.82 990.69 1010.82C981.232 1010.82 970.509 1010.3 958.523 1009.27V909.121C968.075 908.466 977.72 908.138 987.459 908.138Z" fill="#B1B1B1"/>
</svg>
