<svg width="430" height="295" viewBox="0 0 430 295" fill="none" xmlns="http://www.w3.org/2000/svg">
<path opacity="0.3" d="M84.9422 47.5662C40.7186 64.1092 7.94579 106.032 1.47836 156.736C-3.96789 199.462 9.04865 246.681 85.6774 260.133C234.782 286.384 374.424 293.778 410.083 223.153C445.743 152.529 434.755 31.5406 359.093 23.7253C298.939 17.4893 171.265 15.2836 84.9422 47.5662Z" fill="#E6E6E6"/>
<path d="M355.512 115.481C357.3 114.806 358.889 113.689 360.129 112.234C361.369 110.779 362.221 109.034 362.606 107.162V102.941C362.007 100.218 361.489 97.4948 360.781 94.7717C358.875 87.5554 356.397 80.5842 351.904 74.4844C351.07 73.4081 350.16 72.3934 349.181 71.4481C347.608 69.9201 345.599 68.9206 343.431 68.5887C341.264 68.2567 339.048 68.609 337.09 69.5964C328.781 73.6875 319.289 74.6913 310.308 72.4285C298.776 69.5283 289.463 58.1048 288.237 45.9597C287.554 39.8977 288.469 33.7626 290.892 28.164C291.393 26.8598 291.802 25.5222 292.118 24.1611C292.458 23.0406 292.511 21.8527 292.274 20.7061C292.036 19.5595 291.514 18.491 290.756 17.5983C288.718 14.938 286.414 12.4927 283.88 10.3003C275.736 4.06582 265.851 0.524925 255.6 0.170314C254.696 0.113428 253.789 0.235686 252.931 0.530079C252.074 0.824472 251.283 1.28521 250.604 1.88588C248.238 3.8383 246.371 6.32594 245.157 9.14301C241.934 17.1355 235.723 23.5579 227.843 27.0479C219.963 30.5379 211.034 30.821 202.949 27.8373C193.622 24.27 187.59 17.0265 183.696 7.95845C183.492 7.49552 183.329 7.03259 183.097 6.59689C180.497 1.3821 177.46 -0.37431 171.715 0.292855C161.904 1.30096 152.473 4.62349 144.197 9.98718C142.619 11.0491 141.158 12.2769 139.84 13.6498C138.398 15.0823 137.38 16.8861 136.899 18.8615C136.419 20.8369 136.494 22.9067 137.117 24.8418C139.735 34.5941 139.356 44.9088 136.028 54.4422C133.019 63.2788 126.184 68.1804 117.742 70.9443C110.007 73.3739 101.681 73.1438 94.0919 70.2908C92.8529 69.8551 91.6002 69.5283 90.3748 69.1199C86.2901 67.7583 83.0088 68.9292 80.0678 71.7613C77.3004 74.5519 75.0425 77.8052 73.3961 81.3739C69.9139 88.0175 67.8681 95.3192 67.3916 102.805C67.2919 105.624 67.9552 108.419 69.3114 110.893C70.359 113.034 72.171 114.705 74.3901 115.576C81.0546 118.316 86.9756 122.594 91.6683 128.062C96.0244 132.976 98.5269 139.258 98.7431 145.821C98.9594 152.384 96.876 158.817 92.8529 164.007C88.2271 170.389 81.9203 175.362 74.6352 178.372C70.1284 180.183 68.1813 183.45 67.6231 187.971C67.317 192.037 67.7789 196.125 68.9847 200.021C70.7217 206.583 73.4784 212.831 77.154 218.538C79.7682 222.622 83.2947 225.441 88.3461 225.618C90.2437 225.64 92.1327 225.359 93.9421 224.787C102.085 222.25 110.767 221.986 119.049 224.025C122.564 224.916 125.773 226.742 128.335 229.308C138.166 238.975 139.119 251.991 134.966 262.543C134.176 264.559 133.25 266.506 132.583 268.562C131.993 270.255 131.868 272.076 132.223 273.834C132.577 275.593 133.398 277.223 134.598 278.555C137.495 281.841 140.976 284.56 144.865 286.575C152.188 290.683 160.197 293.423 168.501 294.663C170.381 294.883 172.282 294.846 174.152 294.554C176.233 294.296 178.199 293.457 179.825 292.132C181.45 290.807 182.669 289.051 183.342 287.065C186.037 280.217 190.669 274.302 196.672 270.046C197.326 269.556 198.034 269.106 198.687 268.684C202.033 266.493 205.79 265.006 209.729 264.313C214.562 263.513 219.516 263.885 224.175 265.399C228.833 266.913 233.059 269.525 236.498 273.014C240.481 276.917 243.627 281.592 245.743 286.752C246.771 289.269 248.426 291.481 250.549 293.179C251.564 293.924 252.719 294.457 253.945 294.747C255.171 295.038 256.442 295.078 257.684 294.867C268.265 293.751 278.345 289.784 286.848 283.389C289.407 281.635 291.249 279.019 292.037 276.019C292.824 273.018 292.505 269.835 291.137 267.05C289.058 262.705 287.961 257.955 287.926 253.137C287.891 248.32 288.917 243.554 290.933 239.179C295.249 229.648 302.547 224.202 313.086 222.84C319.939 221.919 326.912 222.604 333.455 224.842C336.652 225.96 340.121 226.044 343.368 225.081C346.616 224.118 349.479 222.158 351.55 219.477C358.089 211.135 361.77 200.909 362.047 190.313C362.114 188.588 361.779 186.872 361.071 185.299C360.362 183.725 359.298 182.338 357.963 181.245C356.173 179.639 354.142 178.325 351.945 177.35C347.082 175.362 342.781 172.212 339.417 168.177C336.053 164.142 333.728 159.344 332.647 154.203C331.566 149.062 331.76 143.735 333.213 138.686C334.667 133.638 337.335 129.023 340.984 125.243C345.035 120.943 350 117.607 355.512 115.481ZM238.935 231.459C230.968 233.752 222.717 234.911 214.427 234.904C202.721 234.913 191.137 232.527 180.388 227.892C148.418 214.113 126.892 181.776 127.137 146.851C127.19 130.557 131.782 114.599 140.396 100.768C149.011 86.9361 161.308 75.7778 175.91 68.5438C190.511 61.3099 206.838 58.2863 223.061 59.8121C239.285 61.3379 254.762 67.3527 267.759 77.1822C280.755 87.0117 290.756 100.267 296.641 115.462C302.525 130.657 304.061 147.191 301.075 163.21C298.09 179.229 290.701 194.1 279.737 206.155C268.773 218.209 254.668 226.972 239.003 231.459H238.935Z" fill="#ffffff55"/>
<path opacity="0.09" d="M239.507 236.755C236.784 243.264 221.575 243.985 215.721 245.633C214.345 245.922 213.057 246.534 211.963 247.416C210.935 248.486 210.235 249.828 209.947 251.283C208.899 255.504 209.416 259.875 209.73 264.245C205.776 264.955 202.009 266.465 198.66 268.684C197.966 269.133 197.299 269.583 196.645 270.046C196.368 259.212 197.466 248.388 199.913 237.831C194.589 235.87 188.734 240.336 186.706 245.646C184.677 250.956 185.235 256.825 184.99 262.503C184.741 268.283 183.621 273.994 181.668 279.44C181.079 281.525 179.93 283.409 178.346 284.887C177.532 285.607 176.497 286.027 175.412 286.076C174.327 286.126 173.257 285.802 172.382 285.159C170.367 283.321 171.116 280.067 171.769 277.425C174.996 264.409 172.205 250.521 175.078 237.423C175.576 234.301 176.939 231.381 179.013 228.994C179.407 228.591 179.835 228.222 180.293 227.892C182.918 226.168 185.895 225.052 189.007 224.624C201.054 222.321 213.442 222.474 225.428 225.073C228.887 225.822 236.185 227.796 238.908 231.459C239.487 232.2 239.85 233.088 239.956 234.022C240.062 234.957 239.906 235.903 239.507 236.755Z" fill="black"/>
<path d="M176.875 130.554C170.09 145.551 169.119 162.535 174.152 178.208C182.553 204.827 161.517 217.285 201.138 222.337C240.76 227.388 176.875 130.554 176.875 130.554Z" fill="#43DAC6"/>
<path opacity="0.46" d="M176.875 130.554C170.09 145.551 169.119 162.535 174.152 178.208C182.553 204.827 161.517 217.285 201.138 222.337C240.76 227.388 176.875 130.554 176.875 130.554Z" fill="white"/>
<path d="M205.903 75.9549C204.032 79.1639 202.594 82.6069 201.628 86.1938C201.539 86.6277 201.537 87.075 201.623 87.5095C201.709 87.944 201.881 88.3571 202.128 88.7247C202.375 89.0922 202.693 89.4069 203.063 89.6503C203.433 89.8937 203.848 90.061 204.283 90.1423C205.665 90.4995 207.12 90.4506 208.475 90.0014C209.83 89.5522 211.027 88.7219 211.921 87.6098L216.224 83.1984C216.997 82.2248 217.449 81.0352 217.517 79.7939C217.586 78.5525 217.267 77.3205 216.605 76.268C214.372 72.2106 207.796 72.3467 205.903 75.9549Z" fill="#F4A28C"/>
<path d="M213.12 83.92L217.545 105.365L205.55 106.958L207.102 91.1227L213.12 83.92Z" fill="#F4A28C"/>
<path d="M203.956 79.6992L201.233 81.2242C201.074 81.309 200.94 81.4329 200.842 81.5842C200.744 81.7354 200.686 81.9091 200.674 82.0888C200.662 82.2686 200.695 82.4485 200.772 82.6116C200.848 82.7748 200.965 82.9158 201.111 83.0214L203.208 84.56L203.956 79.6992Z" fill="#F4A28C"/>
<path opacity="0.31" d="M207.074 90.3193C207.074 90.3193 211.486 89.5568 212.997 88.2361C212.997 88.2361 212.194 98.1755 206.312 99.2375L207.074 90.3193Z" fill="#CE8172"/>
<path d="M210.764 83.5115C210.764 83.5115 211.921 81.2105 213.569 82.15C215.216 83.0894 213.569 86.507 211.064 85.69L210.764 83.5115Z" fill="#F4A28C"/>
<path d="M219.083 82.4088L217.123 84.3694C217.123 84.3694 213.909 89.911 209.103 91.9397C204.297 93.9684 198.891 91.8308 199.572 87.501C200.307 82.5449 203.221 84.56 207.592 85.5131C211.962 86.4662 212.847 80.5026 212.847 80.5026C212.045 80.2871 211.307 79.8812 210.696 79.3194C210.084 78.7576 209.617 78.0565 209.334 77.2757L207.088 75.3423C206.59 74.8979 206.194 74.3512 205.927 73.7394C205.66 73.1277 205.528 72.4655 205.541 71.7981C205.554 71.1308 205.711 70.4742 206.002 69.8732C206.292 69.2723 206.709 68.7413 207.224 68.3166C207.829 67.7633 208.537 67.3352 209.309 67.0571C210.08 66.779 210.898 66.6564 211.717 66.6963C216.36 67.0776 225.129 76.6085 219.083 82.4088Z" fill="#24285B"/>
<path d="M215.149 82.0003C215.149 82.0003 218.784 80.9791 219.233 83.7839C219.683 86.5887 215.707 87.6099 213.787 85.4586C214.641 84.5062 215.124 83.279 215.149 82.0003Z" fill="#F4A28C"/>
<path opacity="0.08" d="M199.3 279.536L197.475 230.71L181.858 232.466L176.507 250.957L178.876 278.732L199.3 279.536Z" fill="black"/>
<path d="M197.598 273.068C197.598 273.068 195.76 277.602 191.58 277.793C187.4 277.984 186.134 282.014 189.864 283.239C193.595 284.465 203.48 279.999 203.48 279.999V273.981L197.598 273.068Z" fill="#43DAC6"/>
<path d="M204.542 106.658L216.538 105.065C216.538 105.065 256.159 106.658 262.572 120.505C268.985 134.352 265.554 184.798 241.019 225.346L194.045 224.883C194.045 224.883 197.83 194.52 189.729 177.596C181.627 160.671 155.812 124.44 204.542 106.658Z" fill="#43DAC6"/>
<path d="M241.018 225.4L218.198 221.029C214.903 220.402 211.508 220.536 208.273 221.422C205.038 222.308 202.049 223.923 199.534 226.143C197.018 228.362 195.045 231.127 193.763 234.227C192.481 237.327 191.925 240.679 192.138 244.026L194.003 273.3L205.264 273.736L205.345 246.395C205.35 244.867 205.693 243.359 206.35 241.979C207.007 240.599 207.961 239.381 209.144 238.414C210.328 237.447 211.711 236.754 213.194 236.384C214.677 236.015 216.223 235.979 217.722 236.279C227.43 238.253 239.575 238.035 241.018 225.4Z" fill="#24285B"/>
<path d="M174.233 272.156C174.233 272.156 172.395 276.704 168.215 276.894C164.035 277.085 162.769 281.115 166.5 282.34C170.23 283.566 180.115 279.114 180.115 279.114V273.095L174.233 272.156Z" fill="#43DAC6"/>
<path opacity="0.08" d="M240.868 124.563C240.868 124.563 227.416 135.455 229.54 148.159C229.881 150.201 230.235 152.679 230.561 155.402C231.852 165.91 230.803 176.573 227.491 186.629C224.18 196.684 218.686 205.883 211.404 213.568L202.854 222.622L240.977 225.346L244.504 219.069L263.484 190.135L240.868 124.563Z" fill="black"/>
<path d="M217.722 224.488L194.902 220.131C191.607 219.503 188.212 219.637 184.977 220.524C181.742 221.41 178.752 223.024 176.237 225.244C173.722 227.463 171.748 230.229 170.466 233.328C169.184 236.428 168.629 239.78 168.842 243.128L170.707 272.415L181.967 272.85L182.049 245.51C182.054 243.982 182.397 242.473 183.054 241.092C183.711 239.712 184.665 238.494 185.848 237.526C187.031 236.557 188.413 235.863 189.896 235.492C191.379 235.121 192.926 235.083 194.425 235.38C204.106 237.368 216.197 237.123 217.722 224.488Z" fill="#24285B"/>
<path d="M263.184 121.799C271.354 134.38 278.08 161.693 269.883 199.503C268.659 205.095 265.592 210.114 261.176 213.755C256.759 217.397 251.248 219.45 245.525 219.586L209.566 220.458L210.029 208.762L237.424 205.875C238.923 205.719 240.371 205.239 241.668 204.471C242.965 203.702 244.081 202.662 244.938 201.422C245.796 200.181 246.375 198.77 246.636 197.285C246.897 195.8 246.834 194.276 246.451 192.818C242.271 176.833 235.939 147.886 238.663 127.572C240.31 115.222 256.363 111.369 263.184 121.799Z" fill="#43DAC6"/>
<path opacity="0.46" d="M263.184 121.799C271.354 134.38 278.08 161.693 269.883 199.503C268.659 205.095 265.592 210.114 261.176 213.755C256.759 217.397 251.248 219.45 245.525 219.586L209.566 220.458L210.029 208.762L237.424 205.875C238.923 205.719 240.371 205.239 241.668 204.471C242.965 203.702 244.081 202.662 244.938 201.422C245.796 200.181 246.375 198.77 246.636 197.285C246.897 195.8 246.834 194.276 246.451 192.818C242.271 176.833 235.939 147.886 238.663 127.572C240.31 115.222 256.363 111.369 263.184 121.799Z" fill="white"/>
<path d="M209.92 211.594C209.92 211.594 195.378 210.654 197.148 218.402C198.918 226.149 209.566 220.526 209.566 220.526L209.92 211.594Z" fill="#F4A28C"/>
<path d="M161.054 221.302L156.465 187.862L198.129 189.482L200.648 217.939L219.737 218.946L219.547 223.575L161.054 221.302Z" fill="#C9C9C9"/>
<path d="M178.305 208.843C180.613 208.843 182.485 206.972 182.485 204.663C182.485 202.355 180.613 200.483 178.305 200.483C175.996 200.483 174.125 202.355 174.125 204.663C174.125 206.972 175.996 208.843 178.305 208.843Z" fill="white"/>
<path d="M226.735 105.977C226.735 105.977 231.964 100.871 218.375 99.7686C204.787 98.6657 191.144 99.7686 193.867 111.478C196.59 123.187 226.735 105.977 226.735 105.977Z" fill="#43DAC6"/>
<path opacity="0.46" d="M226.735 105.977C226.735 105.977 231.964 100.871 218.375 99.7686C204.787 98.6657 191.144 99.7686 193.867 111.478C196.59 123.187 226.735 105.977 226.735 105.977Z" fill="white"/>
<path d="M149.127 34.577H48.7388V105.487H149.127V34.577Z" fill="#20C1AC" fill-opacity="0.8"/>
<g opacity="0.5">
<path d="M98.9256 48.356C94.6385 48.356 90.4476 49.6272 86.883 52.009C83.3184 54.3908 80.5401 57.7762 78.8995 61.737C77.2589 65.6978 76.8296 70.0561 77.666 74.2608C78.5024 78.4656 80.5668 82.3279 83.5983 85.3593C86.6298 88.3908 90.4921 90.4552 94.6968 91.2916C98.9016 92.128 103.26 91.6987 107.221 90.0581C111.181 88.4175 114.567 85.6392 116.949 82.0746C119.33 78.51 120.602 74.3192 120.602 70.032C120.602 64.2832 118.318 58.7698 114.253 54.7047C110.188 50.6397 104.674 48.356 98.9256 48.356ZM98.9256 85.3632C95.8928 85.3659 92.9273 84.4691 90.4043 82.7861C87.8813 81.1031 85.9142 78.7096 84.7517 75.9085C83.5892 73.1073 83.2837 70.0243 83.8737 67.0494C84.4637 64.0746 85.9228 61.3415 88.0664 59.1961C90.2099 57.0506 92.9417 55.5891 95.916 54.9964C98.8903 54.4038 101.974 54.7066 104.776 55.8666C107.578 57.0265 109.973 58.9916 111.658 61.5131C113.344 64.0346 114.243 66.9992 114.243 70.032C114.243 74.0958 112.63 77.9933 109.758 80.868C106.885 83.7428 102.989 85.3596 98.9256 85.3632Z" fill="white"/>
<path d="M110.798 70.7128H98.6121L93.3564 64.2454L94.4048 63.3876L99.252 69.3512H110.798V70.7128Z" fill="white"/>
</g>
<path d="M125.449 194.996H62.8984V245.606H125.449V194.996Z" fill="#20C1AC" fill-opacity="0.8"/>
<g opacity="0.5">
<path d="M88.8769 225.182H99.4835C102.329 220.825 104.222 217.68 104.222 214.072C104.126 211.473 103.026 209.012 101.153 207.207C99.2808 205.402 96.7811 204.393 94.1802 204.393C91.5792 204.393 89.0796 205.402 87.2069 207.207C85.3342 209.012 84.2344 211.473 84.1387 214.072C84.1387 217.68 86.0449 220.825 88.8769 225.182Z" fill="white"/>
<path d="M98.9387 226.53H89.435C89.0365 226.53 88.7134 226.853 88.7134 227.252C88.7134 227.65 89.0365 227.973 89.435 227.973H98.9387C99.3373 227.973 99.6603 227.65 99.6603 227.252C99.6603 226.853 99.3373 226.53 98.9387 226.53Z" fill="white"/>
<path d="M98.9387 228.586H89.435C89.0365 228.586 88.7134 228.909 88.7134 229.308C88.7134 229.706 89.0365 230.029 89.435 230.029H98.9387C99.3373 230.029 99.6603 229.706 99.6603 229.308C99.6603 228.909 99.3373 228.586 98.9387 228.586Z" fill="white"/>
<path d="M98.9387 230.642H89.435C89.0365 230.642 88.7134 230.965 88.7134 231.364C88.7134 231.762 89.0365 232.085 89.435 232.085H98.9387C99.3373 232.085 99.6603 231.762 99.6603 231.364C99.6603 230.965 99.3373 230.642 98.9387 230.642Z" fill="white"/>
<path d="M89.5444 233.42C89.9112 234.35 90.5496 235.149 91.3764 235.712C92.2033 236.274 93.1803 236.575 94.1806 236.575C95.1808 236.575 96.1578 236.274 96.9847 235.712C97.8115 235.149 98.4499 234.35 98.8167 233.42H89.5444Z" fill="white"/>
</g>
<path d="M390.45 137.674H290.062V208.585H390.45V137.674Z" fill="#20C1AC" fill-opacity="0.8"/>
<path opacity="0.3" d="M319.935 183.001H312.01V192.137H319.935V183.001Z" fill="white"/>
<path opacity="0.3" d="M336.218 174.614H328.294V192.137H336.218V174.614Z" fill="white"/>
<path opacity="0.3" d="M352.517 169.072H344.592V192.137H352.517V169.072Z" fill="white"/>
<path opacity="0.3" d="M368.814 151.685H360.89V192.137H368.814V151.685Z" fill="white"/>
<path opacity="0.3" d="M374.751 192.137H305.747V194.561H374.751V192.137Z" fill="white"/>
<path opacity="0.3" d="M312.01 171.918L347.343 153.128L348.391 154.857L351.727 150.092L345.573 149.806L346.54 151.658L310.88 169.903L312.01 171.918Z" fill="white"/>
</svg>
