<svg width="390" height="93" viewBox="0 0 390 93" fill="none" xmlns="http://www.w3.org/2000/svg">
<path fill-rule="evenodd" clip-rule="evenodd" d="M391 77.334L374.959 75.1244C357.915 72.9149 325.833 68.4958 292.749 58.5529C260.667 47.5052 227.582 29.8288 195.5 38.667C162.415 47.5052 130.333 81.7531 97.2487 90.5912C65.1667 99.4294 32.0821 81.7531 16.041 72.9149L0 64.0767V-7.62939e-06H16.041C32.0821 -7.62939e-06 65.1667 -7.62939e-06 97.2487 -7.62939e-06C130.333 -7.62939e-06 162.415 -7.62939e-06 195.5 -7.62939e-06C227.582 -7.62939e-06 260.667 -7.62939e-06 292.749 -7.62939e-06C325.833 -7.62939e-06 357.915 -7.62939e-06 374.959 -7.62939e-06H391V77.334Z" fill="url(#paint0_linear_16_101)"/>
<defs>
<linearGradient id="paint0_linear_16_101" x1="378.468" y1="46.5996" x2="45.1888" y2="8.28068" gradientUnits="userSpaceOnUse">
<stop stop-color="#39B299"/>
<stop offset="1" stop-color="#3AAF9F"/>
</linearGradient>
</defs>
</svg>
